<?xml version="1.0" encoding="iso-8859-1"?>
<!-- Uploaded to: SVG Repo, www.svgrepo.com, Generator: SVG Repo Mixer Tools -->
<svg fill="#000000" height="800px" width="800px" version="1.1" id="Layer_1" xmlns="http://www.w3.org/2000/svg" xmlns:xlink="http://www.w3.org/1999/xlink" 
	 viewBox="0 0 511.999 511.999" xml:space="preserve">
<g>
	<g>
		<path d="M368.424,237.611c4.611,0,8.348-3.738,8.348-8.348V174.92c0-18.457-12.84-33.961-30.054-38.075V27.271
			C346.719,12.234,334.485,0,319.447,0c-15.037,0-27.271,12.234-27.271,27.271v108.495h-8.905v-20.971
			c0-4.611-3.738-8.348-8.348-8.348h-37.846c-4.611,0-8.348,3.738-8.348,8.348v20.971h-8.905v-20.971
			c0-4.611-3.738-8.348-8.348-8.348h-37.846c-4.611,0-8.348,3.738-8.348,8.348v22.05c-17.214,4.115-30.054,19.619-30.054,38.075
			v297.924c0,21.59,17.565,39.155,39.155,39.155h163.237c21.59,0,39.155-17.565,39.155-39.155v-208.52
			c0-4.611-3.738-8.348-8.348-8.348s-8.348,3.738-8.348,8.348v208.52c0,12.383-10.075,22.458-22.458,22.458H174.381
			c-12.383,0-22.458-10.075-22.458-22.458V174.921c0-12.383,10.075-22.458,22.458-22.458h163.237
			c12.383,0,22.458,10.075,22.458,22.458v54.342C360.076,233.873,363.814,237.611,368.424,237.611z M203.126,135.766h-21.149
			v-12.623h21.149V135.766z M266.574,135.766h-21.149v-12.623h21.149V135.766z M330.022,135.766h-21.149V27.271
			c0-5.831,4.744-10.575,10.575-10.575s10.575,4.744,10.575,10.575V135.766z"/>
	</g>
</g>
<g>
	<g>
		<path d="M333.361,172.499H178.638c-4.611,0-8.348,3.738-8.348,8.348v84.597c0,4.611,3.738,8.348,8.348,8.348h25.739
			c4.611,0,8.348-3.738,8.348-8.348s-3.738-8.348-8.348-8.348h-17.39v-67.9h138.027v67.9h-93.464c-4.611,0-8.348,3.738-8.348,8.348
			s3.738,8.348,8.348,8.348h101.813c4.611,0,8.348-3.738,8.348-8.348v-84.597C341.71,176.237,337.972,172.499,333.361,172.499z"/>
	</g>
</g>
<g>
	<g>
		<path d="M333.361,400.132H178.638c-4.611,0-8.348,3.738-8.348,8.348s3.738,8.348,8.348,8.348h154.724
			c4.611,0,8.348-3.738,8.348-8.348S337.972,400.132,333.361,400.132z"/>
	</g>
</g>
<g>
	<g>
		<path d="M333.361,430.742H178.638c-4.611,0-8.348,3.738-8.348,8.348s3.738,8.348,8.348,8.348h154.724
			c4.611,0,8.348-3.738,8.348-8.348S337.972,430.742,333.361,430.742z"/>
	</g>
</g>
<g>
	<g>
		<path d="M333.361,369.521h-108.95c-4.611,0-8.348,3.738-8.348,8.348s3.738,8.348,8.348,8.348h108.95
			c4.611,0,8.348-3.738,8.348-8.348S337.972,369.521,333.361,369.521z"/>
	</g>
</g>
<g>
	<g>
		<path d="M197.698,369.521h-19.06c-4.611,0-8.348,3.738-8.348,8.348s3.738,8.348,8.348,8.348h19.06
			c4.611,0,8.348-3.738,8.348-8.348S202.308,369.521,197.698,369.521z"/>
	</g>
</g>
<g>
	<g>
		<path d="M316.059,286.594c-14.144,0-25.651,11.506-25.651,25.651s11.506,25.651,25.651,25.651
			c14.144,0,25.651-11.507,25.651-25.651C341.71,298.101,330.203,286.594,316.059,286.594z M316.059,321.198
			c-4.938,0-8.954-4.017-8.954-8.954c0-4.937,4.016-8.954,8.954-8.954s8.954,4.016,8.954,8.954S320.997,321.198,316.059,321.198z"/>
	</g>
</g>
<g>
	<g>
		<path d="M256.595,286.594c-14.143,0-25.651,11.506-25.651,25.651s11.506,25.651,25.651,25.651s25.651-11.507,25.651-25.651
			C282.246,298.1,270.738,286.594,256.595,286.594z M256.594,321.198c-4.937,0-8.954-4.017-8.954-8.954
			c0-4.938,4.016-8.954,8.954-8.954s8.954,4.016,8.954,8.954S261.531,321.198,256.594,321.198z"/>
	</g>
</g>
</svg>